<?xml version="1.0" encoding="utf-8"?>
<!-- Generator: Adobe Illustrator 17.0.0, SVG Export Plug-In . SVG Version: 6.00 Build 0)  -->
<!DOCTYPE svg PUBLIC "-//W3C//DTD SVG 1.1//EN" "http://www.w3.org/Graphics/SVG/1.1/DTD/svg11.dtd">
<svg version="1.1" id="Layer_1" xmlns="http://www.w3.org/2000/svg" xmlns:xlink="http://www.w3.org/1999/xlink" x="0px" y="0px"
	 width="227px" height="215px" viewBox="0 0 227 215" enable-background="new 0 0 227 215" xml:space="preserve">
<path fill-rule="evenodd" clip-rule="evenodd" fill="#999999" stroke="#525252" stroke-width="6" stroke-miterlimit="10" d="
	M224,162c0,27.614-22.386,50-50,50H53c-27.614,0-50-22.386-50-50V53C3,25.386,25.386,3,53,3h121c27.614,0,50,22.386,50,50V162z"/>
<g>
	<path fill-rule="evenodd" clip-rule="evenodd" fill="#363636" d="M120.301,30.645c10.095-13.305,24.13-13.37,24.13-13.37
		s2.087,12.509-7.941,24.56c-10.708,12.867-22.88,10.762-22.88,10.762S111.324,42.477,120.301,30.645z"/>
	<path fill-rule="evenodd" clip-rule="evenodd" fill="#363636" d="M114.893,61.36c5.194,0,14.832-7.139,27.378-7.139
		c21.596,0,30.092,15.367,30.092,15.367s-16.616,8.495-16.616,29.109c0,23.255,20.699,31.269,20.699,31.269
		s-14.47,40.727-34.014,40.727c-8.977,0-15.955-6.049-25.414-6.049c-9.638,0-19.204,6.275-25.433,6.275
		c-17.847,0-40.394-38.633-40.394-69.688c0-30.554,19.085-46.582,36.985-46.582C99.813,54.649,108.844,61.36,114.893,61.36z"/>
</g>
<g display="none">
	<polygon display="inline" fill="#FF432A" points="49.179,-82 16.321,-82 -12.25,-19 37.75,-19 	"/>
	<path display="inline" fill="#C1291E" d="M-12-19V3c0,13.807,11.193,25,25,25S38,16.807,38,3v-22H-12z"/>
	<path display="inline" fill="#919191" d="M38-19V3c0,13.807,11.193,25,25,25S88,16.807,88,3v-22H38z"/>
	<polygon display="inline" fill="#B2B2B2" points="49.179,-82 37.75,-19 87.75,-19 89.464,-82 	"/>
	<polygon display="inline" fill="#FF432A" points="89.464,-82 87.75,-19 137.75,-19 136.036,-82 	"/>
	<path display="inline" fill="#C1291E" d="M88-19V3c0,13.807,11.193,25,25,25s25-11.193,25-25v-22H88z"/>
	<path display="inline" fill="#919191" d="M138-19V3c0,13.807,11.193,25,25,25s25-11.193,25-25v-22H138z"/>
	<polygon display="inline" fill="#B2B2B2" points="137.75,-19 187.75,-19 176.321,-82 136.036,-82 	"/>
	<polygon display="inline" fill="#FF432A" points="176.321,-82 187.75,-19 237.75,-19 209.179,-82 	"/>
	<path display="inline" fill="#C1291E" d="M188,3c0,13.807,11.193,25,25,25s25-11.193,25-25v-22h-50V3z"/>
</g>
<g display="none">
	
		<polygon display="inline" fill="#FF432A" stroke="#525252" stroke-width="2" stroke-linecap="round" stroke-linejoin="round" stroke-miterlimit="10" points="
		49.179,-80 16.321,-80 -12.25,-17 37.75,-17 	"/>
	
		<polygon display="inline" fill="#B2B2B2" stroke="#525252" stroke-width="2" stroke-linecap="round" stroke-linejoin="round" stroke-miterlimit="10" points="
		49.179,-80 37.75,-17 87.75,-17 89.464,-80 	"/>
	
		<polygon display="inline" fill="#FF432A" stroke="#525252" stroke-width="2" stroke-linecap="round" stroke-linejoin="round" stroke-miterlimit="10" points="
		89.464,-80 87.75,-17 137.75,-17 136.036,-80 	"/>
	
		<polygon display="inline" fill="#B2B2B2" stroke="#525252" stroke-width="2" stroke-linecap="round" stroke-linejoin="round" stroke-miterlimit="10" points="
		137.75,-17 187.75,-17 176.321,-80 136.036,-80 	"/>
	
		<polygon display="inline" fill="#FF432A" stroke="#525252" stroke-width="2" stroke-linecap="round" stroke-linejoin="round" stroke-miterlimit="10" points="
		176.321,-80 187.75,-17 237.75,-17 209.179,-80 	"/>
	
		<path display="inline" fill="#C1291E" stroke="#525252" stroke-width="2" stroke-linecap="round" stroke-linejoin="round" stroke-miterlimit="10" d="
		M86-17V3c0,13.807,11.193,25,25,25s25-11.193,25-25v-20H86z"/>
	
		<path display="inline" fill="#C1291E" stroke="#525252" stroke-width="2" stroke-linecap="round" stroke-linejoin="round" stroke-miterlimit="10" d="
		M-14-17V3c0,13.807,11.193,25,25,25S36,16.807,36,3v-20H-14z"/>
	
		<path display="inline" fill="#919191" stroke="#525252" stroke-width="2" stroke-linecap="round" stroke-linejoin="round" stroke-miterlimit="10" d="
		M36-17V3c0,13.807,11.193,25,25,25S86,16.807,86,3v-20H36z"/>
	
		<path display="inline" fill="#919191" stroke="#525252" stroke-width="2" stroke-linecap="round" stroke-linejoin="round" stroke-miterlimit="10" d="
		M136-17V3c0,13.807,11.193,25,25,25s25-11.193,25-25v-20H136z"/>
	
		<path display="inline" fill="#C1291E" stroke="#525252" stroke-width="2" stroke-linecap="round" stroke-linejoin="round" stroke-miterlimit="10" d="
		M186,3c0,13.807,11.193,25,25,25s25-11.193,25-25v-20h-50V3z"/>
</g>
<path fill="#764ABC" d="M130.404,123.861c2.639-0.273,4.641-2.548,4.55-5.279c-0.091-2.73-2.366-4.914-5.096-4.914h-0.182
	c-2.822,0.091-5.006,2.457-4.914,5.278c0.091,1.365,0.637,2.548,1.456,3.367c-3.094,6.098-7.826,10.557-14.925,14.289
	c-4.823,2.548-9.829,3.458-14.834,2.822c-4.095-0.546-7.281-2.366-9.283-5.37c-2.912-4.459-3.185-9.283-0.728-14.106
	c1.729-3.458,4.459-6.007,6.188-7.281c-0.364-1.183-0.91-3.185-1.183-4.641c-13.196,9.556-11.831,22.479-7.826,28.577
	c3.003,4.551,9.101,7.372,15.835,7.372c1.82,0,3.64-0.182,5.46-0.637C116.571,141.062,125.398,134.145,130.404,123.861
	L130.404,123.861z M146.421,112.576c-6.917-8.1-17.109-12.559-28.758-12.559h-1.456c-0.819-1.638-2.548-2.73-4.459-2.73h-0.182
	c-2.821,0.091-5.005,2.457-4.914,5.279c0.091,2.73,2.366,4.914,5.096,4.914h0.182c2.002-0.091,3.731-1.365,4.459-3.094h1.638
	c6.917,0,13.469,2.002,19.385,5.916c4.55,3.003,7.826,6.917,9.647,11.649c1.547,3.822,1.456,7.554-0.182,10.739
	c-2.548,4.823-6.825,7.463-12.468,7.463c-3.64,0-7.098-1.092-8.919-1.911c-1.001,0.91-2.821,2.366-4.095,3.277
	c3.914,1.82,7.918,2.821,11.74,2.821c8.737,0,15.198-4.824,17.655-9.647C153.428,129.413,153.246,120.312,146.421,112.576
	L146.421,112.576z M100.189,125.408c0.091,2.73,2.366,4.914,5.096,4.914h0.182c2.821-0.091,5.005-2.457,4.914-5.278
	c-0.091-2.73-2.366-4.914-5.096-4.914h-0.182c-0.182,0-0.455,0-0.637,0.091c-3.731-6.189-5.278-12.923-4.732-20.204
	c0.364-5.461,2.184-10.193,5.369-14.107c2.639-3.367,7.735-5.006,11.194-5.096c9.646-0.182,13.742,11.831,14.015,16.655
	c1.183,0.273,3.185,0.91,4.55,1.365c-1.092-14.743-10.193-22.388-18.929-22.388c-8.191,0-15.744,5.916-18.748,14.653
	c-4.186,11.649-1.456,22.843,3.64,31.671C100.372,123.406,100.098,124.407,100.189,125.408L100.189,125.408z"/>
</svg>
