<?xml version="1.0" encoding="utf-8"?>
<!-- Generator: Adobe Illustrator 17.0.0, SVG Export Plug-In . SVG Version: 6.00 Build 0)  -->
<!DOCTYPE svg PUBLIC "-//W3C//DTD SVG 1.1//EN" "http://www.w3.org/Graphics/SVG/1.1/DTD/svg11.dtd">
<svg version="1.1" id="Layer_1" xmlns="http://www.w3.org/2000/svg" xmlns:xlink="http://www.w3.org/1999/xlink" x="0px" y="0px"
	 width="227.344px" height="214.999px" viewBox="0.764 2.519 227.344 214.999" enable-background="new 0.764 2.519 227.344 214.999"
	 xml:space="preserve">
<g id="Layer_1_1_">
	<g>
		<g>
			<path fill="#999999" stroke="#525252" stroke-width="6" stroke-miterlimit="10" d="M52.199,212.52
				c-25.604,0-46.436-20.831-46.436-46.436V53.955C5.764,28.35,26.595,7.52,52.199,7.52h124.474
				c25.604,0,46.436,20.831,46.436,46.435v112.129c0,25.604-20.831,46.436-46.436,46.436H52.199z"/>
			<path fill="#525252" d="M176.673,12.519c22.848,0,41.435,18.588,41.435,41.435v112.129c0,22.848-18.588,41.435-41.435,41.435
				H52.199c-22.848,0-41.435-18.588-41.435-41.435V53.955c0-22.848,18.588-41.435,41.435-41.435h124.474 M176.673,2.519H52.199
				c-28.407,0-51.435,23.029-51.435,51.435v112.129c0,28.407,23.029,51.435,51.435,51.435h124.474
				c28.407,0,51.435-23.029,51.435-51.435V53.955C228.108,25.548,205.079,2.519,176.673,2.519L176.673,2.519z"/>
		</g>
		<g display="none">
			<path display="inline" fill="#131313" d="M120.918,30.645c10.095-13.305,24.13-13.37,24.13-13.37s2.087,12.509-7.941,24.56
				c-10.708,12.867-22.88,10.762-22.88,10.762S111.941,42.477,120.918,30.645z"/>
			<path display="inline" fill="#131313" d="M115.51,61.36c5.194,0,14.832-7.139,27.378-7.139c21.596,0,30.092,15.367,30.092,15.367
				s-16.616,8.495-16.616,29.109c0,23.255,20.699,31.269,20.699,31.269s-14.47,40.727-34.014,40.727
				c-8.977,0-15.955-6.049-25.414-6.049c-9.638,0-19.204,6.275-25.433,6.275c-17.847,0-40.394-38.633-40.394-69.688
				c0-30.554,19.085-46.582,36.985-46.582C100.43,54.649,109.461,61.36,115.51,61.36z"/>
		</g>
		<g display="none">
			<path display="inline" fill="#01314B" d="M114.436,99.942c18.755,0,30.233,6.525,30.233,10.078
				c0,3.552-11.478,10.078-30.233,10.078s-30.233-6.525-30.233-10.078C84.203,106.467,95.681,99.942,114.436,99.942 M114.436,94.903
				c-19.48,0-35.272,6.767-35.272,15.116s15.792,15.116,35.272,15.116s35.272-6.767,35.272-15.116S133.916,94.903,114.436,94.903z"
				/>
			<path display="inline" fill="#01314B" d="M114.436,104.981c-2.783,0-5.039,2.256-5.039,5.039s2.256,5.039,5.039,5.039
				c2.783,0,5.039-2.256,5.039-5.039S117.219,104.981,114.436,104.981z"/>
			<path display="inline" fill="#01314B" d="M100.473,83.583c5.082,0,14.958,8.004,22.69,21.397
				c9.377,16.243,9.465,29.444,6.389,31.221c-0.355,0.184-0.752,0.271-1.151,0.252c-5.082,0-14.96-8.002-22.692-21.395
				c-9.377-16.243-9.465-29.444-6.389-31.221c0.356-0.184,0.754-0.271,1.154-0.252 M100.471,78.547
				c-1.284-0.023-2.551,0.296-3.671,0.925c-7.231,4.175-5.195,21.236,4.545,38.106c8.274,14.335,19.45,23.917,27.059,23.917
				c1.284,0.021,2.55-0.3,3.668-0.93c7.231-4.172,5.195-21.234-4.545-38.104c-8.274-14.335-19.45-23.917-27.059-23.917
				L100.471,78.547z"/>
			<path display="inline" fill="#01314B" d="M128.401,83.583c0.399-0.019,0.796,0.068,1.151,0.252
				c3.076,1.779,2.988,14.98-6.389,31.223c-7.735,13.393-17.611,21.397-22.692,21.397c-0.399,0.019-0.797-0.068-1.151-0.252
				c-3.076-1.781-2.988-14.983,6.389-31.223C113.443,91.587,123.319,83.583,128.401,83.583 M128.401,78.544
				c-7.609,0-18.782,9.584-27.059,23.917c-9.735,16.87-11.773,33.931-4.543,38.104c1.119,0.63,2.386,0.951,3.671,0.93
				c7.609,0,18.782-9.584,27.059-23.917c9.735-16.87,11.773-33.931,4.543-38.104C130.953,78.844,129.685,78.523,128.401,78.544z"/>
		</g>
	</g>
</g>
<g id="Layer_2">
	<g>
		<path fill="#363636" d="M119.848,59.908c6.871-9.056,16.424-9.1,16.424-9.1s1.42,8.514-5.405,16.717
			c-7.289,8.758-15.573,7.325-15.573,7.325S113.738,67.962,119.848,59.908z"/>
		<path fill="#363636" d="M116.167,80.815c3.535,0,10.095-4.859,18.635-4.859c14.699,0,20.482,10.46,20.482,10.46
			s-11.31,5.782-11.31,19.813c0,15.828,14.089,21.284,14.089,21.284s-9.849,27.721-23.151,27.721c-6.11,0-10.86-4.117-17.298-4.117
			c-6.56,0-13.071,4.271-17.311,4.271c-12.148,0-27.495-26.296-27.495-47.433c0-20.796,12.99-31.706,25.174-31.706
			C105.903,76.247,112.05,80.815,116.167,80.815z"/>
	</g>
</g>
</svg>
